/* XPM */
static char * bottom_right_inactive_xpm[] = {
"5 24 4 1",
" 	c None",
".	c #E7E8EB",
"+	c #21252B",
"@	c #E8E9EB",
"....+",
"....+",
"....+",
"....+",
"....+",
"....+",
"....+",
"....+",
"....+",
"....+",
"....+",
"....+",
"....+",
"....+",
"....+",
"....+",
"....+",
"....+",
"....+",
"....+",
"....+",
"....+",
"...@+",
"++++ "};
