/* XPM */
static char * bottom_left_inactive_xpm[] = {
"5 24 4 1",
" 	c None",
".	c #21252B",
"+	c #E7E8EB",
"@	c #E8E9EB",
".++++",
".++++",
".++++",
".++++",
".++++",
".++++",
".++++",
".++++",
".++++",
".++++",
".++++",
".++++",
".++++",
".++++",
".++++",
".++++",
".++++",
".++++",
".++++",
".++++",
".++++",
".++++",
".@+++",
" ...."};
